<svg width="25" height="25" viewBox="0 0 25 25" fill="none" xmlns="http://www.w3.org/2000/svg">
<circle cx="12.3879" cy="12.3879" r="11.6379" stroke="white" stroke-width="1.5"/>
<g clip-path="url(#clip0_662_3039)">
<path d="M19.8201 11.9666V11.818C16.5284 11.7189 15.0259 11.6445 13.8208 10.5544C12.6528 9.42958 12.5678 8.02727 12.467 4.95508H12.3077C12.2015 8.02727 12.1219 9.42958 10.9539 10.5544C9.7487 11.6445 8.24623 11.7238 4.95459 11.818V11.9666C8.24623 12.0657 9.7487 12.1401 10.9539 13.2302C12.1219 14.355 12.2068 15.7573 12.3077 18.8295H12.467C12.5731 15.7573 12.6528 14.355 13.8208 13.2302C15.0259 12.1401 16.5284 12.0608 19.8201 11.9666Z" fill="white"/>
</g>
<defs>
<clipPath id="clip0_662_3039">
<rect width="14.8655" height="13.8744" fill="white" transform="translate(4.95459 4.95508)"/>
</clipPath>
</defs>
</svg>
