<svg width="25" height="25" viewBox="0 0 25 25" fill="none" xmlns="http://www.w3.org/2000/svg">
<circle cx="12.3879" cy="12.3879" r="11.6379" stroke="white" stroke-width="1.5"/>
<path fill-rule="evenodd" clip-rule="evenodd" d="M18.2795 7.739C18.4764 6.77908 17.5335 5.98137 16.6195 6.33453L5.41515 10.6635C4.3944 11.0579 4.34892 12.4852 5.34249 12.9438L7.78248 14.07L8.94322 18.1325C9.00351 18.3435 9.17096 18.5069 9.38341 18.562C9.59586 18.617 9.82158 18.5556 9.97676 18.4003L11.7648 16.6123L14.2694 18.4908C14.9964 19.0361 16.0436 18.6389 16.2262 17.7487L18.2795 7.739ZM5.86161 11.819L17.066 7.49007L15.0127 17.4998L12.0783 15.299C11.8317 15.114 11.4866 15.1385 11.2687 15.3565L10.5029 16.1223L10.733 14.8568L15.2416 10.3482C15.4611 10.1288 15.4842 9.78087 15.2959 9.53427C15.1075 9.28767 14.7658 9.2185 14.4963 9.37246L8.26978 12.9305L5.86161 11.819ZM9.02898 13.9234L9.40457 15.238L9.54877 14.4449C9.57131 14.3209 9.63111 14.2068 9.7202 14.1177L11.0952 12.7428L9.02898 13.9234Z" fill="white"/>
</svg>
