<svg width="25" height="25" viewBox="0 0 25 25" fill="none" xmlns="http://www.w3.org/2000/svg">
<circle cx="12.3879" cy="12.3879" r="11.6379" stroke="white" stroke-width="1.5"/>
<g clip-path="url(#clip0_662_3035)">
<path d="M19.4834 8.54251C19.3162 9.07264 19.0907 9.53409 18.8082 9.95308L18.8199 9.93435C18.5424 10.4006 18.211 10.9393 17.8257 11.5504C17.4953 12.0328 17.3203 12.2826 17.3009 12.2997C17.2154 12.4077 17.156 12.5401 17.1355 12.6856L17.1349 12.6899C17.1516 12.8223 17.2123 12.9378 17.3009 13.024L17.5487 13.3025C18.8745 14.6758 19.6201 15.6224 19.7857 16.1424C19.8074 16.1998 19.8198 16.266 19.8198 16.3353C19.8198 16.4565 19.7814 16.5682 19.7164 16.66L19.7176 16.6582C19.6086 16.7712 19.4562 16.8411 19.2877 16.8411C19.2691 16.8411 19.2499 16.8405 19.2319 16.8386H19.2344H17.6045C17.6039 16.8386 17.6026 16.8386 17.6014 16.8386C17.3926 16.8386 17.2006 16.7649 17.05 16.6425L17.0519 16.6438C16.8326 16.4621 16.6375 16.2654 16.4628 16.0518L16.4572 16.0443C16.1718 15.7192 15.9186 15.4455 15.6977 15.2232C14.9617 14.518 14.4186 14.1654 14.0684 14.1654C14.0554 14.1642 14.0405 14.1636 14.025 14.1636C13.9228 14.1636 13.8274 14.1954 13.7487 14.2497L13.7506 14.2485C13.6862 14.3297 13.6471 14.4346 13.6471 14.5476C13.6471 14.5701 13.6484 14.5913 13.6515 14.6132V14.6107C13.6347 14.8067 13.6248 15.0346 13.6248 15.2651C13.6248 15.3394 13.6261 15.413 13.6279 15.4867V15.4761V16.1998C13.6341 16.2292 13.6378 16.2629 13.6378 16.2972C13.6378 16.4483 13.5697 16.5832 13.4631 16.6725L13.4625 16.6731C13.2228 16.7837 12.9428 16.8486 12.6473 16.8486C12.5841 16.8486 12.5221 16.8455 12.4608 16.8399L12.4689 16.8405C11.4938 16.8218 10.5893 16.5339 9.8205 16.0487L9.84218 16.0612C8.90612 15.488 8.13051 14.7418 7.53951 13.8601L7.52278 13.8339C6.96152 13.0833 6.43804 12.2354 5.992 11.3412L5.94864 11.245C5.68783 10.7442 5.41773 10.1285 5.1848 9.49538L5.14763 9.37986C5.05285 9.09512 4.98408 8.76418 4.95558 8.42137L4.95435 8.40576C4.95435 8.09021 5.13854 7.93244 5.50694 7.93244H7.13622C7.15108 7.93119 7.16843 7.93057 7.1864 7.93057C7.34003 7.93057 7.4819 7.98365 7.59403 8.07294L7.59279 8.07169C7.71669 8.20844 7.80837 8.37641 7.8536 8.56374L7.85545 8.57123C8.15529 9.42482 8.47309 10.1417 8.8386 10.8285L8.79709 10.743C9.09569 11.3487 9.42588 11.8701 9.80254 12.3515L9.78829 12.3321C10.1187 12.7409 10.3764 12.9453 10.5614 12.9453C10.567 12.9459 10.5738 12.9459 10.5812 12.9459C10.6729 12.9459 10.7528 12.896 10.7962 12.8211L10.7968 12.8198C10.8427 12.7012 10.8693 12.5632 10.8693 12.4196C10.8693 12.389 10.8681 12.3584 10.8656 12.3284V12.3321V9.91C10.8526 9.62463 10.7832 9.358 10.6674 9.11885L10.6723 9.13071C10.5955 8.96587 10.5032 8.8235 10.3935 8.69674L10.3954 8.69924C10.2938 8.59683 10.2244 8.46258 10.2027 8.31272L10.2021 8.30897C10.2021 8.20282 10.2504 8.10728 10.326 8.04484L10.3266 8.04422C10.4016 7.9749 10.5019 7.93307 10.6116 7.93307H10.6166H13.185C13.1986 7.93119 13.2141 7.93057 13.2302 7.93057C13.351 7.93057 13.4594 7.98552 13.5313 8.07169L13.5319 8.07231C13.5957 8.18971 13.6335 8.3302 13.6335 8.47881C13.6335 8.50254 13.6323 8.52565 13.6304 8.54875V8.54563V11.7758C13.6292 11.7908 13.6286 11.8082 13.6286 11.8257C13.6286 11.9406 13.6601 12.0486 13.7147 12.1404L13.7134 12.1379C13.7586 12.2054 13.8342 12.2491 13.9197 12.2491C14.0287 12.2416 14.1285 12.2054 14.2121 12.1479L14.2103 12.1492C14.3788 12.0324 14.5237 11.8994 14.6495 11.7489L14.652 11.7458C15.028 11.3174 15.3749 10.8441 15.6772 10.3408L15.7014 10.2971C15.9145 9.94122 16.145 9.50287 16.3537 9.05266L16.3921 8.96087L16.6684 8.40388C16.7645 8.12539 17.0222 7.92932 17.3251 7.92932C17.3369 7.92932 17.3486 7.92932 17.3604 7.92995H17.3585H18.9884C19.4287 7.92995 19.5939 8.13413 19.484 8.54251H19.4834Z" fill="white"/>
</g>
<defs>
<clipPath id="clip0_662_3035">
<rect width="15.4849" height="16.1043" fill="white" transform="translate(4.64453 4.64648)"/>
</clipPath>
</defs>
</svg>
